<svg width="402" height="475" viewBox="0 0 402 475" fill="none" xmlns="http://www.w3.org/2000/svg">
    <g id="vapor">
        <g id="first batch" filter="url(#filter0_f_6_83)">
            <g id="Group 2">
                <ellipse id="Ellipse 1" cx="45.3003" cy="424.106" rx="15" ry="14.5" transform="rotate(15.3331 45.3003 424.106)" fill="#D9D9D9" fill-opacity="0.5"/>
                <ellipse id="Ellipse 2" cx="92.7122" cy="403.212" rx="22" ry="17" transform="rotate(15.3331 92.7122 403.212)" fill="#D9D9D9" fill-opacity="0.5"/>
                <ellipse id="Ellipse 3" cx="127.601" cy="367.867" rx="22.5" ry="18.5" transform="rotate(15.3331 127.601 367.867)" fill="#D9D9D9" fill-opacity="0.5"/>
                <ellipse id="Ellipse 4" cx="176.249" cy="356.838" rx="29.5" ry="23" transform="rotate(15.3331 176.249 356.838)" fill="#D9D9D9" fill-opacity="0.5"/>
            </g>
            <g id="Group 4">
                <ellipse id="Ellipse 2_2" cx="209.571" cy="303.78" rx="22" ry="17" transform="rotate(-9.7931 209.571 303.78)" fill="#D9D9D9" fill-opacity="0.5"/>
                <ellipse id="Ellipse 3_2" cx="228.251" cy="250.324" rx="22.5" ry="18.5" transform="rotate(-9.7931 228.251 250.324)" fill="#D9D9D9" fill-opacity="0.5"/>
                <ellipse id="Ellipse 4_2" cx="267.613" cy="219.683" rx="29.5" ry="23" transform="rotate(-9.7931 267.613 219.683)" fill="#D9D9D9" fill-opacity="0.5"/>
            </g>
            <g id="Group 7">
                <ellipse id="Ellipse 3_3" cx="172.838" cy="127.876" rx="27.6486" ry="20.0683" transform="rotate(51.988 172.838 127.876)" fill="#D9D9D9" fill-opacity="0.5"/>
                <ellipse id="Ellipse 4_3" cx="220.719" cy="156.867" rx="32.6788" ry="28.1973" transform="rotate(51.988 220.719 156.867)" fill="#D9D9D9" fill-opacity="0.5"/>
                <ellipse id="Ellipse 5" cx="273.939" cy="134.573" rx="25.095" ry="30.1679" transform="rotate(51.988 273.939 134.573)" fill="#D9D9D9" fill-opacity="0.5"/>
                <ellipse id="Ellipse 6" cx="215.157" cy="110.014" rx="34.1569" ry="26.694" transform="rotate(51.988 215.157 110.014)" fill="#D9D9D9" fill-opacity="0.5"/>
            </g>
        </g>
        <g id="second batch" filter="url(#filter1_f_6_83)">
            <g id="Group 5">
                <ellipse id="Ellipse 2_3" cx="191.021" cy="302.872" rx="22" ry="17" transform="rotate(-7.8404 191.021 302.872)" fill="#D9D9D9" fill-opacity="0.4"/>
                <ellipse id="Ellipse 3_4" cx="223.304" cy="277.092" rx="22.5" ry="18.5" transform="rotate(-7.8404 223.304 277.092)" fill="#D9D9D9" fill-opacity="0.4"/>
                <ellipse id="Ellipse 4_4" cx="263.687" cy="247.809" rx="29.5" ry="23" transform="rotate(-7.8404 263.687 247.809)" fill="#D9D9D9" fill-opacity="0.4"/>
            </g>
            <g id="Group 8">
                <ellipse id="Ellipse 3_5" cx="262.015" cy="200.456" rx="27.6486" ry="20.0683" transform="rotate(-2.38048 262.015 200.456)" fill="#D9D9D9" fill-opacity="0.4"/>
                <ellipse id="Ellipse 4_5" cx="313.472" cy="178.428" rx="32.6788" ry="28.1973" transform="rotate(-2.38048 313.472 178.428)" fill="#D9D9D9" fill-opacity="0.4"/>
                <ellipse id="Ellipse 5_2" cx="326.357" cy="122.184" rx="25.095" ry="30.1679" transform="rotate(-2.38048 326.357 122.184)" fill="#D9D9D9" fill-opacity="0.4"/>
                <ellipse id="Ellipse 6_2" cx="272.15" cy="155.654" rx="34.1569" ry="26.694" transform="rotate(-2.38048 272.15 155.654)" fill="#D9D9D9" fill-opacity="0.4"/>
            </g>
        </g>
        <g id="third batch" filter="url(#filter2_f_6_83)">
            <g id="Group 1">
                <ellipse id="Ellipse 1_2" cx="67" cy="402.5" rx="15" ry="14.5" fill="#D9D9D9" fill-opacity="0.5"/>
                <ellipse id="Ellipse 2_4" cx="104" cy="376" rx="22" ry="17" fill="#D9D9D9" fill-opacity="0.5"/>
                <ellipse id="Ellipse 3_6" cx="131.5" cy="326.5" rx="22.5" ry="18.5" fill="#D9D9D9" fill-opacity="0.5"/>
                <ellipse id="Ellipse 4_6" cx="175.5" cy="303" rx="29.5" ry="23" fill="#D9D9D9" fill-opacity="0.5"/>
            </g>
            <g id="Group 3">
                <ellipse id="Ellipse 1_3" cx="110.339" cy="352.891" rx="15" ry="14.5" transform="rotate(-6.29398 110.339 352.891)" fill="#D9D9D9" fill-opacity="0.5"/>
                <ellipse id="Ellipse 2_5" cx="144.211" cy="322.494" rx="22" ry="17" transform="rotate(-6.29398 144.211 322.494)" fill="#D9D9D9" fill-opacity="0.5"/>
                <ellipse id="Ellipse 3_7" cx="166.119" cy="270.277" rx="22.5" ry="18.5" transform="rotate(-6.29398 166.119 270.277)" fill="#D9D9D9" fill-opacity="0.5"/>
                <ellipse id="Ellipse 4_7" cx="207.277" cy="242.095" rx="29.5" ry="23" transform="rotate(-6.29398 207.277 242.095)" fill="#D9D9D9" fill-opacity="0.5"/>
            </g>
            <g id="Group 6">
                <ellipse id="Ellipse 3_8" cx="200.539" cy="215.092" rx="22.5" ry="18.5" transform="rotate(-7.8404 200.539 215.092)" fill="#D9D9D9" fill-opacity="0.5"/>
                <ellipse id="Ellipse 4_8" cx="240.922" cy="185.809" rx="29.5" ry="23" transform="rotate(-7.8404 240.922 185.809)" fill="#D9D9D9" fill-opacity="0.5"/>
                <ellipse id="Ellipse 5_3" cx="257.596" cy="139.809" rx="29.5" ry="23" transform="rotate(-7.8404 257.596 139.809)" fill="#D9D9D9" fill-opacity="0.5"/>
                <ellipse id="Ellipse 6_3" cx="206.596" cy="174.809" rx="29.5" ry="23" transform="rotate(-7.8404 206.596 174.809)" fill="#D9D9D9" fill-opacity="0.5"/>
            </g>
            <g id="Group 9">
                <ellipse id="Ellipse 3_9" cx="260.115" cy="46.0823" rx="27.6486" ry="20.0683" transform="rotate(122.007 260.115 46.0823)" fill="#D9D9D9" fill-opacity="0.5"/>
                <ellipse id="Ellipse 4_9" cx="249.23" cy="100.987" rx="32.6788" ry="28.1973" transform="rotate(122.007 249.23 100.987)" fill="#D9D9D9" fill-opacity="0.5"/>
                <ellipse id="Ellipse 5_4" cx="288.368" cy="143.386" rx="25.095" ry="30.1679" transform="rotate(122.007 288.368 143.386)" fill="#D9D9D9" fill-opacity="0.5"/>
                <ellipse id="Ellipse 6_4" cx="291.362" cy="79.7497" rx="34.1569" ry="26.694" transform="rotate(122.007 291.362 79.7497)" fill="#D9D9D9" fill-opacity="0.5"/>
            </g>
        </g>
    </g>
    <defs>
        <filter id="filter0_f_6_83" x="0.331055" y="48.4744" width="331.963" height="420.171" filterUnits="userSpaceOnUse" color-interpolation-filters="sRGB">
            <feFlood flood-opacity="0" result="BackgroundImageFix"/>
            <feBlend mode="normal" in="SourceGraphic" in2="BackgroundImageFix" result="shape"/>
            <feGaussianBlur stdDeviation="15" result="effect1_foregroundBlur_6_83"/>
        </filter>
        <filter id="filter1_f_6_83" x="119.102" y="42.024" width="282.36" height="327.957" filterUnits="userSpaceOnUse" color-interpolation-filters="sRGB">
            <feFlood flood-opacity="0" result="BackgroundImageFix"/>
            <feBlend mode="normal" in="SourceGraphic" in2="BackgroundImageFix" result="shape"/>
            <feGaussianBlur stdDeviation="25" result="effect1_foregroundBlur_6_83"/>
        </filter>
        <filter id="filter2_f_6_83" x="32" y="0.330444" width="308.349" height="436.67" filterUnits="userSpaceOnUse" color-interpolation-filters="sRGB">
            <feFlood flood-opacity="0" result="BackgroundImageFix"/>
            <feBlend mode="normal" in="SourceGraphic" in2="BackgroundImageFix" result="shape"/>
            <feGaussianBlur stdDeviation="10" result="effect1_foregroundBlur_6_83"/>
        </filter>
    </defs>
</svg>
